<svg xmlns="http://www.w3.org/2000/svg" width="960" height="600" viewBox="0 0 960 600" role="img">
<title>Diagrama del curso</title><defs><marker id="arrow" markerWidth="10" markerHeight="10" refX="8" refY="3" orient="auto"><path d="M0,0 L0,6 L9,3 z" fill="#667085"/></marker></defs>
<rect width="100%" height="100%" rx="12" fill="#ffffff"/>
<path d="M 480.0 112.0 L 480.0 166.0" stroke="#667085" stroke-width="2" fill="none" marker-end="url(#arrow)"/>
<path d="M 480.0 244.0 L 346.0 298.0" stroke="#667085" stroke-width="2" fill="none" marker-end="url(#arrow)"/>
<text x="413.0" y="266.0" text-anchor="middle" font-family="Arial, sans-serif" font-size="14" fill="#475467">válido</text>
<path d="M 480.0 244.0 L 614.0 298.0" stroke="#667085" stroke-width="2" fill="none" marker-end="url(#arrow)"/>
<text x="547.0" y="266.0" text-anchor="middle" font-family="Arial, sans-serif" font-size="14" fill="#475467">inválido</text>
<path d="M 346.0 376.0 L 480.0 430.0" stroke="#667085" stroke-width="2" fill="none" marker-end="url(#arrow)"/>
<path d="M 614.0 376.0 L 480.0 430.0" stroke="#667085" stroke-width="2" fill="none" marker-end="url(#arrow)"/>
<rect x="355.0" y="34.0" width="250.0" height="78" rx="10" fill="#EAF2F8" stroke="#1D5D84" stroke-width="2"/>
<text x="480.0" y="73.0" text-anchor="middle" font-family="Arial, sans-serif" font-size="16" fill="#12355B">Lista de eventos</text>
<rect x="355.0" y="166.0" width="250.0" height="78" rx="10" fill="#EAF2F8" stroke="#1D5D84" stroke-width="2"/>
<text x="480.0" y="205.0" text-anchor="middle" font-family="Arial, sans-serif" font-size="16" fill="#12355B">validar_pedido</text>
<rect x="221.0" y="298.0" width="250.0" height="78" rx="10" fill="#EAF2F8" stroke="#1D5D84" stroke-width="2"/>
<text x="346.0" y="337.0" text-anchor="middle" font-family="Arial, sans-serif" font-size="16" fill="#12355B">acumular total y canal</text>
<rect x="489.0" y="298.0" width="250.0" height="78" rx="10" fill="#EAF2F8" stroke="#1D5D84" stroke-width="2"/>
<text x="614.0" y="337.0" text-anchor="middle" font-family="Arial, sans-serif" font-size="16" fill="#12355B">guardar incidencia</text>
<rect x="355.0" y="430.0" width="250.0" height="78" rx="10" fill="#EAF2F8" stroke="#1D5D84" stroke-width="2"/>
<text x="480.0" y="469.0" text-anchor="middle" font-family="Arial, sans-serif" font-size="16" fill="#12355B">resumen verificable</text>
</svg>
