<svg xmlns="http://www.w3.org/2000/svg" width="960" height="864" viewBox="0 0 960 864" role="img">
<title>Diagrama del curso</title><defs><marker id="arrow" markerWidth="10" markerHeight="10" refX="8" refY="3" orient="auto"><path d="M0,0 L0,6 L9,3 z" fill="#667085"/></marker></defs>
<rect width="100%" height="100%" rx="12" fill="#ffffff"/>
<path d="M 480.0 112.0 L 480.0 166.0" stroke="#667085" stroke-width="2" fill="none" marker-end="url(#arrow)"/>
<path d="M 480.0 244.0 L 480.0 298.0" stroke="#667085" stroke-width="2" fill="none" marker-end="url(#arrow)"/>
<path d="M 480.0 376.0 L 480.0 430.0" stroke="#667085" stroke-width="2" fill="none" marker-end="url(#arrow)"/>
<path d="M 480.0 508.0 L 480.0 562.0" stroke="#667085" stroke-width="2" fill="none" marker-end="url(#arrow)"/>
<path d="M 480.0 640.0 L 212.0 694.0" stroke="#667085" stroke-width="2" fill="none" marker-end="url(#arrow)"/>
<text x="346.0" y="662.0" text-anchor="middle" font-family="Arial, sans-serif" font-size="14" fill="#475467">Sí</text>
<path d="M 480.0 640.0 L 480.0 694.0" stroke="#667085" stroke-width="2" fill="none" marker-end="url(#arrow)"/>
<text x="480.0" y="662.0" text-anchor="middle" font-family="Arial, sans-serif" font-size="14" fill="#475467">No, incierto</text>
<path d="M 480.0 640.0 L 748.0 694.0" stroke="#667085" stroke-width="2" fill="none" marker-end="url(#arrow)"/>
<text x="614.0" y="662.0" text-anchor="middle" font-family="Arial, sans-serif" font-size="14" fill="#475467">Daño</text>
<rect x="355.0" y="34.0" width="250.0" height="78" rx="10" fill="#EAF2F8" stroke="#1D5D84" stroke-width="2"/>
<text x="480.0" y="63.0" text-anchor="middle" font-family="Arial, sans-serif" font-size="16" fill="#12355B">Impacto mínimo que</text>
<text x="480.0" y="83.0" text-anchor="middle" font-family="Arial, sans-serif" font-size="16" fill="#12355B">merece actuar</text>
<rect x="355.0" y="166.0" width="250.0" height="78" rx="10" fill="#EAF2F8" stroke="#1D5D84" stroke-width="2"/>
<text x="480.0" y="205.0" text-anchor="middle" font-family="Arial, sans-serif" font-size="16" fill="#12355B">MDE</text>
<rect x="355.0" y="298.0" width="250.0" height="78" rx="10" fill="#EAF2F8" stroke="#1D5D84" stroke-width="2"/>
<text x="480.0" y="337.0" text-anchor="middle" font-family="Arial, sans-serif" font-size="16" fill="#12355B">Tamaño y duración</text>
<rect x="355.0" y="430.0" width="250.0" height="78" rx="10" fill="#EAF2F8" stroke="#1D5D84" stroke-width="2"/>
<text x="480.0" y="469.0" text-anchor="middle" font-family="Arial, sans-serif" font-size="16" fill="#12355B">Estimación e intervalo</text>
<rect x="355.0" y="562.0" width="250.0" height="78" rx="10" fill="#EAF2F8" stroke="#1D5D84" stroke-width="2"/>
<text x="480.0" y="601.0" text-anchor="middle" font-family="Arial, sans-serif" font-size="16" fill="#12355B">¿Efecto útil y seguro?</text>
<rect x="87.0" y="694.0" width="250.0" height="78" rx="10" fill="#EAF2F8" stroke="#1D5D84" stroke-width="2"/>
<text x="212.0" y="733.0" text-anchor="middle" font-family="Arial, sans-serif" font-size="16" fill="#12355B">Ramp-up y monitorización</text>
<rect x="355.0" y="694.0" width="250.0" height="78" rx="10" fill="#EAF2F8" stroke="#1D5D84" stroke-width="2"/>
<text x="480.0" y="733.0" text-anchor="middle" font-family="Arial, sans-serif" font-size="16" fill="#12355B">Continuar o rediseñar</text>
<rect x="623.0" y="694.0" width="250.0" height="78" rx="10" fill="#EAF2F8" stroke="#1D5D84" stroke-width="2"/>
<text x="748.0" y="733.0" text-anchor="middle" font-family="Arial, sans-serif" font-size="16" fill="#12355B">Detener y aprender</text>
</svg>
